<?xml version="1.0" standalone="no"?>
<!DOCTYPE svg PUBLIC "-//W3C//DTD SVG 20010904//EN"
 "http://www.w3.org/TR/2001/REC-SVG-20010904/DTD/svg10.dtd">
<svg version="1.0" xmlns="http://www.w3.org/2000/svg"
 width="300.000000pt" height="205.000000pt" viewBox="0 0 300.000000 205.000000"
 preserveAspectRatio="xMidYMid meet">
<metadata>
Created by potrace 1.10, written by Peter Selinger 2001-2011
</metadata>
<g transform="translate(0.000000,205.000000) scale(0.100000,-0.100000)"
fill="#000000" stroke="none">
<path d="M1480 2006 c0 -2 -25 -102 -56 -222 -80 -313 -83 -327 -84 -351 0
-23 1 -23 150 -23 128 0 152 2 157 16 3 9 -8 66 -24 127 -17 62 -50 190 -73
285 -29 116 -47 172 -57 172 -7 0 -13 -2 -13 -4z"/>
<path d="M852 1473 l3 -318 179 -3 c102 -1 184 2 189 7 6 6 -18 56 -62 133
-40 67 -120 206 -179 307 -59 102 -113 186 -120 189 -10 3 -12 -62 -10 -315z"/>
<path d="M2054 1682 c-105 -184 -275 -476 -286 -489 -6 -7 -8 -20 -4 -28 5
-13 32 -15 188 -13 l183 3 3 318 c2 250 0 317 -10 317 -7 0 -40 -49 -74 -108z"/>
<path d="M1290 1084 c-174 -113 -287 -177 -507 -287 -156 -78 -283 -147 -283
-152 0 -6 100 -61 223 -123 130 -66 288 -155 382 -217 88 -57 170 -110 182
-117 12 -7 70 -44 128 -81 l106 -68 72 46 c40 25 144 93 232 150 209 136 248
159 504 290 119 61 216 115 215 120 0 6 -32 26 -70 45 -301 152 -580 300 -639
338 -38 25 -123 81 -188 124 -66 43 -122 78 -126 78 -4 0 -108 -66 -231 -146z
m427 -40 c104 -54 211 -111 238 -129 45 -29 133 -86 354 -230 l75 -48 -33 -25
c-92 -71 -305 -196 -551 -322 l-274 -142 -68 33 c-37 18 -68 35 -68 39 0 3 88
93 195 200 107 107 195 199 195 205 0 5 -91 101 -202 212 l-203 203 -207 -207
-208 -208 188 -189 c103 -103 183 -187 177 -185 -55 20 -432 223 -508 274 -54
36 -102 65 -105 65 -4 1 -20 11 -36 24 l-29 24 24 13 c23 12 114 70 309 198
75 49 523 289 542 290 4 1 92 -42 195 -95z"/>
<path d="M50 1142 c0 -9 4 -12 300 -167 118 -62 236 -125 263 -139 26 -15 52
-24 57 -21 6 4 10 74 10 171 l0 164 -315 0 c-173 0 -315 -4 -315 -8z"/>
<path d="M2310 987 c0 -90 3 -167 7 -170 3 -4 81 32 172 80 401 208 441 231
441 244 0 5 -126 9 -310 9 l-310 0 0 -163z"/>
</g>
</svg>
