<?xml version="1.0" standalone="no"?>
<!DOCTYPE svg PUBLIC "-//W3C//DTD SVG 20010904//EN"
 "http://www.w3.org/TR/2001/REC-SVG-20010904/DTD/svg10.dtd">
<svg version="1.0" xmlns="http://www.w3.org/2000/svg"
 width="510.000000pt" height="348.000000pt" viewBox="0 0 510.000000 348.000000"
 preserveAspectRatio="xMidYMid meet">
<metadata>
Created by potrace 1.10, written by Peter Selinger 2001-2011
</metadata>
<g transform="translate(0.000000,348.000000) scale(0.050000,-0.050000)"
fill="#000000" stroke="none">
<path d="M4444 6836 c-13 -13 -24 -42 -24 -65 0 -23 -32 -167 -71 -321 -39
-154 -107 -419 -151 -590 -44 -170 -107 -411 -140 -535 -33 -124 -55 -234 -48
-245 18 -30 950 -27 950 3 0 12 -18 91 -39 175 -21 83 -52 206 -68 272 -17 66
-53 210 -82 320 -70 263 -181 712 -212 850 -33 150 -64 187 -115 136z m159
-1196 c96 -314 80 -359 -123 -359 -212 0 -219 25 -108 415 102 357 107 364
153 204 21 -71 56 -188 78 -260z"/>
<path d="M2545 5235 l5 -945 568 0 c644 0 617 -8 506 162 -43 65 -113 180
-156 256 -136 239 -346 602 -440 759 -32 53 -71 120 -88 149 -16 28 -80 138
-142 243 -62 105 -127 220 -146 256 -20 40 -48 65 -73 65 -39 0 -39 -14 -34
-945z m532 -271 c279 -484 283 -444 -37 -444 l-260 0 0 454 c0 545 -24 546
297 -10z"/>
<path d="M6306 6105 c-23 -41 -62 -111 -86 -155 -25 -44 -60 -102 -79 -130
-19 -27 -68 -113 -110 -190 -41 -77 -81 -145 -88 -150 -7 -6 -30 -42 -51 -80
-98 -182 -128 -236 -175 -310 -29 -44 -85 -138 -125 -210 -40 -71 -81 -143
-92 -160 -88 -138 -220 -383 -220 -409 0 -27 66 -31 570 -31 l570 0 0 950 c0
905 -2 950 -36 950 -22 0 -54 -31 -78 -75z m-126 -1135 l0 -450 -260 0 c-300
0 -295 -5 -193 173 278 486 425 727 444 727 5 0 9 -202 9 -450z"/>
<path d="M4500 4484 c-27 -18 -55 -40 -60 -47 -6 -8 -96 -67 -200 -131 -105
-64 -226 -142 -270 -172 -111 -77 -494 -324 -650 -420 -119 -73 -361 -198
-1428 -737 -256 -130 -382 -204 -382 -225 0 -21 93 -79 270 -169 778 -393
1068 -548 1250 -666 110 -72 304 -197 430 -277 127 -81 316 -202 420 -270 105
-67 232 -148 284 -181 52 -32 163 -102 245 -155 l151 -97 155 95 c85 52 173
110 195 128 22 19 117 80 210 136 94 56 188 116 210 133 22 17 108 73 190 124
83 51 185 116 228 145 43 29 92 61 110 72 18 11 118 73 222 139 155 97 863
467 1445 756 159 79 150 98 -112 230 -1240 627 -1740 885 -1753 906 -6 9 -109
76 -230 150 -121 73 -238 149 -260 169 -22 19 -125 87 -230 150 -104 63 -194
121 -200 129 -13 19 -166 121 -180 120 -5 -1 -32 -16 -60 -35z m398 -408 c172
-90 429 -221 572 -293 143 -71 329 -177 413 -236 84 -59 161 -108 170 -108 9
-1 80 -45 157 -99 77 -54 181 -123 230 -153 50 -31 224 -143 389 -251 164
-107 308 -199 320 -203 27 -10 44 3 -259 -192 -143 -92 -345 -223 -450 -292
-104 -68 -230 -144 -278 -168 -48 -25 -98 -53 -110 -63 -12 -10 -260 -139
-552 -286 -291 -147 -618 -312 -725 -367 l-195 -101 -194 98 c-107 54 -206 98
-220 98 -40 0 -61 -22 589 626 l615 613 -610 611 c-335 335 -623 610 -639 610
-41 0 -1221 -1181 -1221 -1222 0 -18 257 -286 571 -595 313 -310 564 -563 557
-563 -7 0 -118 57 -246 126 -127 70 -398 210 -602 312 -203 102 -487 260 -630
352 -143 91 -339 214 -435 273 -216 132 -218 103 22 241 38 21 182 112 320
203 139 91 289 187 333 213 44 26 111 73 150 104 38 31 77 56 86 56 9 0 67 34
130 76 63 42 245 142 404 223 160 81 452 231 650 333 198 103 364 187 368 187
4 1 148 -73 320 -163z m-671 -556 c48 -44 93 -75 100 -70 7 6 8 4 2 -4 -6 -8
153 -178 352 -377 l363 -364 -140 -157 c-197 -222 -778 -794 -798 -785 -30 13
-906 910 -906 928 0 29 887 909 915 909 14 0 65 -36 112 -80z"/>
<path d="M174 4267 c-32 -32 -8 -65 81 -111 158 -81 722 -377 935 -491 110
-58 272 -143 360 -187 88 -45 214 -112 280 -150 205 -116 196 -137 195 442
l-1 500 -918 5 c-506 3 -925 -1 -932 -8z m1606 -447 c0 -110 -7 -200 -15 -200
-8 0 -87 41 -175 90 -88 50 -239 131 -335 180 -240 124 -232 130 175 130 l350
0 0 -200z"/>
<path d="M6940 3770 c0 -601 -32 -561 307 -381 134 71 356 188 493 261 138 73
318 165 400 204 83 39 155 79 161 88 6 9 78 49 160 88 514 249 538 239 -586
245 l-935 5 0 -510z m936 228 c-7 -21 -47 -44 -458 -264 -274 -147 -258 -152
-258 86 l0 200 362 0 c249 0 359 -7 354 -22z"/>
</g>
</svg>
